<?xml version="1.0" encoding="UTF-8"?>
<svg width="52px" height="52px" viewBox="0 0 52 52" version="1.1" xmlns="http://www.w3.org/2000/svg" xmlns:xlink="http://www.w3.org/1999/xlink">
    <title>Group 17</title>
    <defs>
        <polygon id="path-1" points="0 0 52 0 52 52 0 52"></polygon>
    </defs>
    <g id="Portal-Clínica" stroke="none" stroke-width="1" fill="none" fill-rule="evenodd">
        <g id="04.Ficha_Paciente" transform="translate(-301.000000, -902.000000)">
            <g id="Group-5" transform="translate(262.000000, 833.000000)">
                <g id="Group-17" transform="translate(39.000000, 69.000000)">
                    <g id="Group-3">
                        <mask id="mask-2" fill="white">
                            <use xlink:href="#path-1"></use>
                        </mask>
                        <g id="Clip-2"></g>
                        <path d="M48.2973847,20.0424257 L48.6552749,13.6161611 C48.6801479,13.1848558 48.4455371,12.7797132 48.0589723,12.5866951 L42.3340332,9.69337795 L39.4391961,3.97155334 C39.2422751,3.58844827 38.8395265,3.35526332 38.4091893,3.37556387 L31.9685786,3.72262732 L26.6016383,0.178715422 C26.2399466,-0.0595718074 25.7710508,-0.0595718074 25.4089246,0.178715422 L20.0419843,3.72262732 L13.6127783,3.36492508 C13.1807033,3.33952225 12.775891,3.57400991 12.5827715,3.96091455 L9.6874999,9.68284771 L3.96310394,12.5761649 C3.57936314,12.7725483 3.34638154,13.1750855 3.36669276,13.6056309 L3.72414845,20.0317869 L0.178809306,25.3960179 C-0.059603102,25.7575197 -0.059603102,26.2260608 0.178809306,26.5879968 L3.71361268,31.962758 L3.35572253,38.388914 C3.33074082,38.8203279 3.5649172,39.2254705 3.95202509,39.4184886 L9.67696414,42.3118058 L12.5716927,48.0336304 C12.7682878,48.4171697 13.1710365,48.6500289 13.6016994,48.6296198 L20.0313399,48.2720261 L25.3983888,51.8155038 C25.7579082,52.0614987 26.2314746,52.0614987 26.5909939,51.8155038 L31.9579342,48.2720261 L38.3875747,48.6296198 C38.8191066,48.654697 39.2240276,48.4202093 39.4175815,48.0336304 L42.3124186,42.3118058 L48.0372491,39.4184886 C48.420664,39.2216709 48.6539715,38.8194594 48.6336602,38.388914 L48.2757701,31.962758 L51.8211092,26.5986356 C52.0596303,26.2371338 52.0596303,25.7680499 51.8211092,25.4066567 L48.2973847,20.0424257 Z" id="Fill-1" fill="#199742" mask="url(#mask-2)"></path>
                    </g>
                    <g id="check-ok" transform="translate(4.000000, 4.000000)">
                        <g id="Group-15">
                            <path d="M43.8782437,22.0619667 C43.8782437,34.1784667 34.0570771,43.9996333 21.9405771,43.9996333 C9.82407708,43.9996333 0.00107708333,34.1784667 0.00107708333,22.0619667 C0.00107708333,9.94546667 9.82407708,0.1243 21.9405771,0.1243 C34.0570771,0.1243 43.8782437,9.94546667 43.8782437,22.0619667" id="Fill-1" fill="#199742"></path>
                            <path d="M30.9297602,11.766949 L18.799748,23.0209731 L13.1163215,18.1455022 C13.1163215,18.1455022 12.5487458,17.5588488 11.6628676,17.4026394 C10.8364314,17.2568439 9.71086755,17.5206643 9.13753944,18.0396269 C8.5814687,18.5429685 8.15386947,19.4212128 8.27083607,20.1814322 C8.40506005,21.0423199 9.12795201,21.7591478 9.12795201,21.7591478 L18.799748,30.25 L34.9200471,15.3805946 C34.9200471,15.3805946 35.6045894,14.79047 35.7388134,13.721303 C35.8730373,12.6538717 34.8932023,11.7513281 34.8932023,11.7513281 C34.8932023,11.7513281 34.0169115,10.9425102 32.8702553,11.0032583 C31.7216816,11.0640064 30.9297602,11.766949 30.9297602,11.766949" id="Fill-4" fill="#FFFFFF"></path>
                        </g>
                    </g>
                </g>
            </g>
        </g>
    </g>
</svg>